<svg xmlns="http://www.w3.org/2000/svg" width="24" height="24" viewBox="0 0 24 24" role="img" aria-label="TikTok">
  <title>Tikaram Spirits TikTok Icon</title>
  <defs>
    <linearGradient id="tikaramGoldSocial" x1="10%" y1="90%" x2="90%" y2="10%">
      <stop offset="0%" style="stop-color:#C09000;stop-opacity:1" />
      <stop offset="50%" style="stop-color:#FFD700;stop-opacity:1" />
      <stop offset="100%" style="stop-color:#B08000;stop-opacity:1" />
    </linearGradient>
  </defs>
  <path fill="url(#tikaramGoldSocial)" d="M16.6 5.82C15.6 5.21 14.75 4.45 14.1 3.55 13.45 2.65 13 1.65 13 0h-3v15.5C10 17.45 8.45 19 6.5 19 4.55 19 3 17.45 3 15.5 3 13.55 4.55 12 6.5 12c.45 0 .85.1 1.25.25V9.15C7.3 9.05 6.9 9 6.5 9 2.9 9 0 11.9 0 15.5 0 19.1 2.9 22 6.5 22 10.1 22 13 19.1 13 15.5V6.6c1.8 1.2 3.95 1.95 6.15 2.2V5.8c-1.25 0-2.55-.35-3.65-1.05z"/>
</svg>