<svg xmlns="http://www.w3.org/2000/svg" width="24" height="24" viewBox="0 0 24 24" role="img" aria-label="Facebook">
  <title>Tikaram Spirits Facebook Icon</title>
  <defs>
    <linearGradient id="tikaramGoldSocial" x1="10%" y1="90%" x2="90%" y2="10%">
      <stop offset="0%" style="stop-color:#C09000;stop-opacity:1" />
      <stop offset="50%" style="stop-color:#FFD700;stop-opacity:1" />
      <stop offset="100%" style="stop-color:#B08000;stop-opacity:1" />
    </linearGradient>
  </defs>
  <path fill="url(#tikaramGoldSocial)" d="M24 12.073c0-6.627-5.373-12-12-12s-12 5.373-12 12c0 5.99 4.388 10.954 10.125 11.854v-8.385H7.078v-3.47h3.047V9.43c0-3.007 1.792-4.669 4.533-4.669 1.312 0 2.686.235 2.686.235v2.953H15.83c-1.491 0-1.956.925-1.956 1.874v2.25h3.328l-.532 3.47h-2.796v8.385C19.612 23.027 24 18.062 24 12.073z"/>
</svg>