<svg xmlns="http://www.w3.org/2000/svg" width="24" height="24" viewBox="0 0 24 24" role="img" aria-label="Instagram">
  <title>Tikaram Spirits Instagram Icon</title>
  <defs>
    <linearGradient id="tikaramGoldSocial" x1="10%" y1="90%" x2="90%" y2="10%">
      <stop offset="0%" style="stop-color:#C09000;stop-opacity:1" /> <stop offset="50%" style="stop-color:#FFD700;stop-opacity:1" /> <stop offset="100%" style="stop-color:#B08000;stop-opacity:1" /> </linearGradient>
  </defs>
  <path fill="url(#tikaramGoldSocial)" d="M12 2.163c3.204 0 3.584.012 4.85.07 3.252.148 4.771 1.691 4.919 4.919.058 1.265.069 1.645.069 4.85s-.011 3.585-.069 4.85c-.148 3.225-1.664 4.771-4.919 4.919-1.266.058-1.644.069-4.85.069s-3.585-.011-4.85-.069c-3.269-.149-4.771-1.691-4.919-4.919-.058-1.265-.069-1.645-.069-4.85s.011-3.585.069-4.85c.148-3.225 1.664-4.771 4.919-4.919 1.265-.058 1.645-.069 4.85-.069zm0-2.163c-3.259 0-3.667.014-4.947.072-4.358.2-6.78 2.618-6.98 6.98-.059 1.281-.073 1.689-.073 4.948 0 3.259.014 3.668.072 4.948.2 4.358 2.618 6.78 6.98 6.98 1.281.058 1.689.072 4.948.072 3.259 0 3.668-.014 4.948-.072 4.36-.2 6.78-2.618 6.98-6.98.058-1.281.072-1.689.072-4.948 0-3.259-.014-3.667-.072-4.947-.2-4.361-2.618-6.78-6.98-6.98-1.281-.059-1.689-.073-4.948-.073zm0 5.838c-3.403 0-6.162 2.759-6.162 6.162s2.759 6.163 6.162 6.163 6.162-2.759 6.162-6.163-2.759-6.162-6.162-6.162zm0 10.162c-2.209 0-4-1.79-4-4 0-2.209 1.791-4 4-4s4 1.791 4 4c0 2.21-1.791 4-4 4zm6.406-11.845c-.796 0-1.441.645-1.441 1.44s.645 1.44 1.441 1.44c.795 0 1.439-.645 1.439-1.44s-.644-1.44-1.439-1.44z"/>
</svg>